HIERARCHY
ROOT Hips
{
	OFFSET 0.000000 0.000000 0.000000
	CHANNELS 6 Xposition Yposition Zposition Zrotation Yrotation Xrotation 
	JOINT LHipJoint
	{
		OFFSET 0.000000 0.000000 0.000000
		CHANNELS 3 Zrotation Yrotation Xrotation
		JOINT LeftUpLeg
		{
			OFFSET 1.363060 -1.794630 0.839290
			CHANNELS 3 Zrotation Yrotation Xrotation
			JOINT LeftLeg
			{
				OFFSET 2.448110 -6.726130 0.000000
				CHANNELS 3 Zrotation Yrotation Xrotation
				JOINT LeftFoot
				{
					OFFSET 2.562200 -7.039590 0.000000
					CHANNELS 3 Zrotation Yrotation Xrotation
					JOINT LeftToeBase
					{
						OFFSET 0.157640 -0.433110 2.322550
						CHANNELS 3 Zrotation Yrotation Xrotation
						End Site
						{
							OFFSET 0.000000 0.000000 0.000000
						}
					}
				}
			}
		}
	}
	JOINT RHipJoint
	{
		OFFSET 0.000000 0.000000 0.000000
		CHANNELS 3 Zrotation Yrotation Xrotation
		JOINT RightUpLeg
		{
			OFFSET -1.305520 -1.794630 0.839290
			CHANNELS 3 Zrotation Yrotation Xrotation
			JOINT RightLeg
			{
				OFFSET -2.542530 -6.985550 0.000000
				CHANNELS 3 Zrotation Yrotation Xrotation
				JOINT RightFoot
				{
					OFFSET -2.568260 -7.056230 0.000000
					CHANNELS 3 Zrotation Yrotation Xrotation
					JOINT RightToeBase
					{
						OFFSET -0.164730 -0.452590 2.363150
						CHANNELS 3 Zrotation Yrotation Xrotation
						End Site
						{
							OFFSET 0.000000 0.000000 0.000000
						}
					}
				}
			}
		}
	}
	JOINT LowerBack
	{
		OFFSET 0.000000 0.000000 0.000000
		CHANNELS 3 Zrotation Yrotation Xrotation
		JOINT Spine
		{
			OFFSET 0.028270 2.035590 -0.193380
			CHANNELS 3 Zrotation Yrotation Xrotation
			JOINT Spine1
			{
				OFFSET 0.056720 2.048850 -0.042750
				CHANNELS 3 Zrotation Yrotation Xrotation
				JOINT Neck
				{
					OFFSET 0.000000 0.000000 0.000000
					CHANNELS 3 Zrotation Yrotation Xrotation
					JOINT Neck1
					{
						OFFSET -0.054170 1.746240 0.172020
						CHANNELS 3 Zrotation Yrotation Xrotation
						JOINT Head
						{
							OFFSET 0.104070 1.761360 -0.123970
							CHANNELS 3 Zrotation Yrotation Xrotation
							End Site
							{
								OFFSET 0.000000 0.000000 0.000000
							}
						}
					}
				}
				JOINT LeftShoulder
				{
					OFFSET 0.000000 0.000000 0.000000
					CHANNELS 3 Zrotation Yrotation Xrotation
					JOINT LeftArm
					{
						OFFSET 3.362410 1.200890 -0.311210
						CHANNELS 3 Zrotation Yrotation Xrotation
						JOINT LeftForeArm
						{
							OFFSET 4.983000 -0.000000 -0.000000
							CHANNELS 3 Zrotation Yrotation Xrotation
							JOINT LeftHand
							{
								OFFSET 3.483560 -0.000000 -0.000000
								CHANNELS 3 Zrotation Yrotation Xrotation
								JOINT LeftFingerBase
								{
									OFFSET 0.000000 0.000000 0.000000
									CHANNELS 3 Zrotation Yrotation Xrotation
									JOINT LeftHandIndex1
									{
										OFFSET 0.715260 -0.000000 -0.000000
										CHANNELS 3 Zrotation Yrotation Xrotation
										End Site
										{
											OFFSET 0.000000 0.000000 0.000000
										}
									}
								}
								JOINT LThumb
								{
									OFFSET 0.000000 0.000000 0.000000
									CHANNELS 3 Zrotation Yrotation Xrotation
									End Site
									{
										OFFSET 0.000000 0.000000 0.000000
									}
								}
							}
						}
					}
				}
				JOINT RightShoulder
				{
					OFFSET 0.000000 0.000000 0.000000
					CHANNELS 3 Zrotation Yrotation Xrotation
					JOINT RightArm
					{
						OFFSET -3.136600 1.374050 -0.404650
						CHANNELS 3 Zrotation Yrotation Xrotation
						JOINT RightForeArm
						{
							OFFSET -5.241900 -0.000000 -0.000000
							CHANNELS 3 Zrotation Yrotation Xrotation
							JOINT RightHand
							{
								OFFSET -3.444170 -0.000000 -0.000000
								CHANNELS 3 Zrotation Yrotation Xrotation
								JOINT RightFingerBase
								{
									OFFSET 0.000000 0.000000 0.000000
									CHANNELS 3 Zrotation Yrotation Xrotation
									JOINT RightHandIndex1
									{
										OFFSET -0.622530 -0.000000 -0.000000
										CHANNELS 3 Zrotation Yrotation Xrotation
										End Site
										{
											OFFSET 0.000000 0.000000 0.000000
										}
									}
								}
								JOINT RThumb
								{
									OFFSET 0.000000 0.000000 0.000000
									CHANNELS 3 Zrotation Yrotation Xrotation
									End Site
									{
										OFFSET 0.000000 0.000000 0.000000
									}
								}
							}
						}
					}
				}
			}
		}
	}
}
MOTION
Frames: 4
Frame Time: 0.008333
15.540627 17.414252 -24.211221 -0.028023 -3.006477 10.236776 6.861557 4.670670 0.599679 -15.030363 -26.727759 -11.936047 -2.839329 4.717693 14.847560 -4.170184 24.617054 -17.956740 0.040900 1.305200 3.588900 -9.822703 -5.536409 0.417265 23.056733 6.152937 -25.169958 -3.658114 -14.319512 43.350128 1.002441 -14.582366 -12.860591 -0.138500 -2.398900 6.609300 -1.862172 0.444940 1.057189 1.075026 0.216314 -4.061386 0.780140 0.636307 -7.035555 -6.293236 -1.490028 -11.009652 10.024788 -2.137384 16.836659 4.443000 -0.808700 7.940800 2.255566 -12.702518 0.975942 -85.010556 -2.112321 2.588132 8.921709 -9.389009 -1.936212 -1.259802 1.148803 59.338246 4.414130 37.802623 3.750100 -7.125000 0.000000 0.000000 -36.488000 64.735000 -18.565900 -4.035838 13.599400 2.827081 83.924333 0.719123 34.412527 -10.777963 10.798924 -2.302444 -2.156072 -0.255592 4.364270 -31.782954 25.026710 -14.088500 7.125000 0.000000 0.000000 0.128600 -0.517600 0.127500 
15.551264 17.431336 -24.179632 -0.030849 -3.223211 10.319877 6.819149 4.694382 0.609391 -15.037177 -27.007221 -11.439232 -2.918348 4.487509 14.337634 -4.193169 24.752097 -18.388070 0.093100 1.967600 5.416100 -9.801848 -5.516815 0.435377 22.539551 6.519687 -25.271125 -3.446373 -14.178567 42.616941 1.071958 -15.105354 -13.188331 -0.151200 -2.505800 6.905800 -1.806158 0.448485 0.955599 1.066351 0.223261 -4.074933 0.764580 0.633387 -7.038905 -6.442110 -1.386864 -10.867985 10.054884 -1.980788 16.686702 4.496800 -0.752100 7.811700 2.255158 -12.702111 0.996636 -84.696587 -2.033453 4.169780 8.908970 -9.364350 -1.955221 -1.294090 1.121914 57.362431 5.184574 38.099185 4.263000 -7.125000 0.000000 0.000000 -36.052600 65.162100 -18.667800 -4.031823 13.561310 2.840504 83.771371 0.701435 35.149638 -10.901000 10.966599 -2.381678 -2.167637 -0.268705 3.901779 -32.891381 25.405101 -14.906100 7.125000 0.000000 0.000000 -0.447700 0.216700 -0.449400 
15.558892 17.445733 -24.146862 -0.259261 -3.522959 10.319944 6.759046 4.737477 0.630366 -14.794478 -27.242546 -10.825295 -3.006090 4.237281 13.806367 -4.207081 24.867312 -19.145886 0.198500 2.868800 7.913700 -9.765217 -5.511021 0.456445 22.264484 6.928089 -25.125674 -3.163692 -13.935663 41.626459 1.108553 -15.546753 -13.912074 -0.262800 -3.297700 9.108800 -1.448359 0.523589 0.993046 1.035366 0.338370 -4.086174 0.513659 0.660383 -7.094004 -6.377949 -1.327731 -10.902987 10.027757 -1.902076 16.653610 4.481500 -0.712200 7.795900 2.262523 -12.706344 1.030195 -84.261123 -1.946133 5.331125 9.026129 -9.505011 -2.000180 -1.335306 1.078663 56.279839 4.657613 38.618023 3.977300 -7.125000 0.000000 0.000000 -37.372100 65.445300 -19.678400 -4.044819 13.550438 2.815671 83.831556 0.835330 35.351510 -10.804906 10.884015 -2.347847 -2.162416 -0.280411 4.238844 -32.784737 24.921672 -14.614600 7.125000 0.000000 0.000000 -0.472500 -0.325400 -0.469800 
15.565124 17.458842 -24.109578 -0.250776 -3.782649 10.287030 6.705307 4.798774 0.657797 -14.873851 -27.399340 -10.076172 -3.113686 3.912986 13.103120 -4.273640 25.171802 -19.645078 0.274900 3.372300 9.317100 -9.719950 -5.507939 0.473439 21.700243 7.347420 -24.944784 -2.869076 -13.668918 40.559204 1.240413 -16.499456 -14.531270 -0.357300 -3.840100 10.627300 -1.366108 0.585341 1.021208 0.982031 0.434836 -4.092881 0.316192 0.684764 -7.119457 -6.185325 -1.309889 -11.030380 9.914662 -1.886134 16.708519 4.389100 -0.691600 7.849300 2.272235 -12.706995 1.058875 -83.835019 -1.962649 5.942459 9.107357 -9.603109 -2.021986 -1.353789 1.055184 55.940137 4.023651 38.785269 3.586700 -7.125000 0.000000 0.000000 -38.304600 65.416400 -20.209600 -4.058361 13.553170 2.787497 83.909043 1.007487 35.442313 -10.667012 10.739616 -2.296370 -2.156530 -0.279567 4.563336 -32.329108 24.575452 -14.189400 7.125000 0.000000 0.000000 -0.267400 -0.828900 -0.263500 
